<mxfile host="app.diagrams.net" agent="Mozilla/5.0 (Windows NT 10.0; Win64; x64) AppleWebKit/537.36 (KHTML, like Gecko) Chrome/139.0.0.0 Safari/537.36" version="28.2.0">
  <diagram name="Страница — 1" id="mIHZjBeiGlW2cxECGAX8">
    <mxGraphModel dx="1066" dy="703" grid="1" gridSize="10" guides="1" tooltips="1" connect="1" arrows="1" fold="1" page="1" pageScale="1" pageWidth="1169" pageHeight="827" math="0" shadow="0">
      <root>
        <mxCell id="0" />
        <mxCell id="1" parent="0" />
        <mxCell id="Wp9_VDhf542CK1KfMWfJ-22" value="" style="rounded=0;whiteSpace=wrap;html=1;strokeColor=#000000;dashed=1;dashPattern=8 8;strokeWidth=2;" vertex="1" parent="1">
          <mxGeometry x="20" y="170" width="480" height="480" as="geometry" />
        </mxCell>
        <mxCell id="j4LA7XrgFb8-6QXly_M1-1" value="&lt;b&gt;&lt;font style=&quot;font-size: 14px;&quot;&gt;ЗАКАЗЧИК&lt;/font&gt;&lt;/b&gt;" style="rounded=1;whiteSpace=wrap;html=1;fontFamily=Times New Roman;" parent="1" vertex="1">
          <mxGeometry x="320" y="10" width="220" height="60" as="geometry" />
        </mxCell>
        <mxCell id="j4LA7XrgFb8-6QXly_M1-3" value="&lt;span style=&quot;font-size: 14px;&quot;&gt;&lt;b&gt;МДК&lt;/b&gt;&lt;/span&gt;" style="rounded=1;whiteSpace=wrap;html=1;fontFamily=Times New Roman;" parent="1" vertex="1">
          <mxGeometry x="40" y="90" width="120" height="60" as="geometry" />
        </mxCell>
        <mxCell id="j4LA7XrgFb8-6QXly_M1-4" value="Техстрой.&lt;div&gt;Ремонтные работы и инженерные сети&lt;/div&gt;" style="rounded=0;whiteSpace=wrap;html=1;fontFamily=Times New Roman;" parent="1" vertex="1">
          <mxGeometry x="650" y="90" width="190" height="50" as="geometry" />
        </mxCell>
        <mxCell id="j4LA7XrgFb8-6QXly_M1-5" value="Поставщики.&lt;div&gt;ИТ оборудование и ПО&lt;/div&gt;" style="rounded=0;whiteSpace=wrap;html=1;fontFamily=Times New Roman;" parent="1" vertex="1">
          <mxGeometry x="650" y="189" width="190" height="50" as="geometry" />
        </mxCell>
        <mxCell id="j4LA7XrgFb8-6QXly_M1-6" value="Поставщики.&lt;div&gt;Оборудования.&lt;/div&gt;" style="rounded=0;whiteSpace=wrap;html=1;fontFamily=Times New Roman;" parent="1" vertex="1">
          <mxGeometry x="650" y="288" width="190" height="50" as="geometry" />
        </mxCell>
        <mxCell id="j4LA7XrgFb8-6QXly_M1-7" value="Поставщики.&lt;div&gt;Мебель.&lt;/div&gt;" style="rounded=0;whiteSpace=wrap;html=1;fontFamily=Times New Roman;" parent="1" vertex="1">
          <mxGeometry x="650" y="388" width="190" height="50" as="geometry" />
        </mxCell>
        <mxCell id="j4LA7XrgFb8-6QXly_M1-11" value="Поставщики.&lt;div&gt;АХО.&lt;/div&gt;" style="rounded=0;whiteSpace=wrap;html=1;fontFamily=Times New Roman;" parent="1" vertex="1">
          <mxGeometry x="650" y="487" width="190" height="50" as="geometry" />
        </mxCell>
        <mxCell id="j4LA7XrgFb8-6QXly_M1-12" value="Клининг." style="rounded=0;whiteSpace=wrap;html=1;fontFamily=Times New Roman;" parent="1" vertex="1">
          <mxGeometry x="650" y="600" width="190" height="50" as="geometry" />
        </mxCell>
        <mxCell id="j4LA7XrgFb8-6QXly_M1-15" value="&lt;b&gt;В рамках Договора на Услуги&lt;/b&gt;" style="swimlane;fontStyle=0;childLayout=stackLayout;horizontal=1;startSize=26;fillColor=none;horizontalStack=0;resizeParent=1;resizeParentMax=0;resizeLast=0;collapsible=1;marginBottom=0;whiteSpace=wrap;html=1;fontFamily=Times New Roman;fontSize=14;" parent="1" vertex="1">
          <mxGeometry x="40" y="180" width="440" height="338" as="geometry" />
        </mxCell>
        <mxCell id="j4LA7XrgFb8-6QXly_M1-16" value="Разработка концептуальных решений фитнес клуба" style="text;strokeColor=none;fillColor=none;align=left;verticalAlign=top;spacingLeft=4;spacingRight=4;overflow=hidden;rotatable=0;points=[[0,0.5],[1,0.5]];portConstraint=eastwest;whiteSpace=wrap;html=1;fontFamily=Times New Roman;" parent="j4LA7XrgFb8-6QXly_M1-15" vertex="1">
          <mxGeometry y="26" width="440" height="26" as="geometry" />
        </mxCell>
        <mxCell id="Wp9_VDhf542CK1KfMWfJ-19" value="Разработка концептуальных решений фитнес клуба" style="text;strokeColor=none;fillColor=none;align=left;verticalAlign=top;spacingLeft=4;spacingRight=4;overflow=hidden;rotatable=0;points=[[0,0.5],[1,0.5]];portConstraint=eastwest;whiteSpace=wrap;html=1;fontFamily=Times New Roman;" vertex="1" parent="j4LA7XrgFb8-6QXly_M1-15">
          <mxGeometry y="52" width="440" height="26" as="geometry" />
        </mxCell>
        <mxCell id="j4LA7XrgFb8-6QXly_M1-17" value="Разработка эскиза функциональных зон." style="text;strokeColor=none;fillColor=none;align=left;verticalAlign=top;spacingLeft=4;spacingRight=4;overflow=hidden;rotatable=0;points=[[0,0.5],[1,0.5]];portConstraint=eastwest;whiteSpace=wrap;html=1;fontFamily=Times New Roman;" parent="j4LA7XrgFb8-6QXly_M1-15" vertex="1">
          <mxGeometry y="78" width="440" height="26" as="geometry" />
        </mxCell>
        <mxCell id="j4LA7XrgFb8-6QXly_M1-18" value="Дизайн проект." style="text;strokeColor=none;fillColor=none;align=left;verticalAlign=top;spacingLeft=4;spacingRight=4;overflow=hidden;rotatable=0;points=[[0,0.5],[1,0.5]];portConstraint=eastwest;whiteSpace=wrap;html=1;fontFamily=Times New Roman;" parent="j4LA7XrgFb8-6QXly_M1-15" vertex="1">
          <mxGeometry y="104" width="440" height="26" as="geometry" />
        </mxCell>
        <mxCell id="j4LA7XrgFb8-6QXly_M1-22" value="Разработка комплексной системы групповых и персональных тренировок" style="text;strokeColor=none;fillColor=none;align=left;verticalAlign=top;spacingLeft=4;spacingRight=4;overflow=hidden;rotatable=0;points=[[0,0.5],[1,0.5]];portConstraint=eastwest;whiteSpace=wrap;html=1;fontFamily=Times New Roman;" parent="j4LA7XrgFb8-6QXly_M1-15" vertex="1">
          <mxGeometry y="130" width="440" height="26" as="geometry" />
        </mxCell>
        <mxCell id="j4LA7XrgFb8-6QXly_M1-21" value="Подбор и расстановка оборудования." style="text;strokeColor=none;fillColor=none;align=left;verticalAlign=top;spacingLeft=4;spacingRight=4;overflow=hidden;rotatable=0;points=[[0,0.5],[1,0.5]];portConstraint=eastwest;whiteSpace=wrap;html=1;fontFamily=Times New Roman;" parent="j4LA7XrgFb8-6QXly_M1-15" vertex="1">
          <mxGeometry y="156" width="440" height="26" as="geometry" />
        </mxCell>
        <mxCell id="j4LA7XrgFb8-6QXly_M1-23" value="Маркетинг на стадии подготовки клуба к открытию." style="text;strokeColor=none;fillColor=none;align=left;verticalAlign=top;spacingLeft=4;spacingRight=4;overflow=hidden;rotatable=0;points=[[0,0.5],[1,0.5]];portConstraint=eastwest;whiteSpace=wrap;html=1;fontFamily=Times New Roman;" parent="j4LA7XrgFb8-6QXly_M1-15" vertex="1">
          <mxGeometry y="182" width="440" height="26" as="geometry" />
        </mxCell>
        <mxCell id="j4LA7XrgFb8-6QXly_M1-24" value="Разработка и внедрение ключевых бизнес-процессов клуба" style="text;strokeColor=none;fillColor=none;align=left;verticalAlign=top;spacingLeft=4;spacingRight=4;overflow=hidden;rotatable=0;points=[[0,0.5],[1,0.5]];portConstraint=eastwest;whiteSpace=wrap;html=1;fontFamily=Times New Roman;" parent="j4LA7XrgFb8-6QXly_M1-15" vertex="1">
          <mxGeometry y="208" width="440" height="26" as="geometry" />
        </mxCell>
        <mxCell id="j4LA7XrgFb8-6QXly_M1-26" value="Разработка штатного расписания, подбор и обучение персонала." style="text;strokeColor=none;fillColor=none;align=left;verticalAlign=top;spacingLeft=4;spacingRight=4;overflow=hidden;rotatable=0;points=[[0,0.5],[1,0.5]];portConstraint=eastwest;whiteSpace=wrap;html=1;fontFamily=Times New Roman;" parent="j4LA7XrgFb8-6QXly_M1-15" vertex="1">
          <mxGeometry y="234" width="440" height="26" as="geometry" />
        </mxCell>
        <mxCell id="Wp9_VDhf542CK1KfMWfJ-3" value="Формирование пула тренеров от партнерской организации" style="text;strokeColor=none;fillColor=none;align=left;verticalAlign=top;spacingLeft=4;spacingRight=4;overflow=hidden;rotatable=0;points=[[0,0.5],[1,0.5]];portConstraint=eastwest;whiteSpace=wrap;html=1;fontFamily=Times New Roman;" vertex="1" parent="j4LA7XrgFb8-6QXly_M1-15">
          <mxGeometry y="260" width="440" height="26" as="geometry" />
        </mxCell>
        <mxCell id="Wp9_VDhf542CK1KfMWfJ-4" value="Составление бюджета планируемых доходов и расходов на 1-й год работы." style="text;strokeColor=none;fillColor=none;align=left;verticalAlign=top;spacingLeft=4;spacingRight=4;overflow=hidden;rotatable=0;points=[[0,0.5],[1,0.5]];portConstraint=eastwest;whiteSpace=wrap;html=1;fontFamily=Times New Roman;" vertex="1" parent="j4LA7XrgFb8-6QXly_M1-15">
          <mxGeometry y="286" width="440" height="26" as="geometry" />
        </mxCell>
        <mxCell id="Wp9_VDhf542CK1KfMWfJ-5" value="Организация открытия фитнес Клуба." style="text;strokeColor=none;fillColor=none;align=left;verticalAlign=top;spacingLeft=4;spacingRight=4;overflow=hidden;rotatable=0;points=[[0,0.5],[1,0.5]];portConstraint=eastwest;whiteSpace=wrap;html=1;fontFamily=Times New Roman;" vertex="1" parent="j4LA7XrgFb8-6QXly_M1-15">
          <mxGeometry y="312" width="440" height="26" as="geometry" />
        </mxCell>
        <mxCell id="j4LA7XrgFb8-6QXly_M1-28" value="Договор Агенский + Услуги" style="html=1;verticalAlign=bottom;endArrow=open;endSize=8;curved=0;rounded=0;fontFamily=Times New Roman;strokeWidth=2;entryX=0.5;entryY=0;entryDx=0;entryDy=0;exitX=0;exitY=0.5;exitDx=0;exitDy=0;fontSize=12;fontStyle=1;strokeColor=#FF0000;fontColor=#FF0000;" parent="1" source="j4LA7XrgFb8-6QXly_M1-1" target="j4LA7XrgFb8-6QXly_M1-3" edge="1">
          <mxGeometry x="-0.2727" y="-10" relative="1" as="geometry">
            <mxPoint x="540" y="350" as="sourcePoint" />
            <mxPoint x="170" y="80" as="targetPoint" />
            <Array as="points">
              <mxPoint x="100" y="40" />
            </Array>
            <mxPoint as="offset" />
          </mxGeometry>
        </mxCell>
        <mxCell id="j4LA7XrgFb8-6QXly_M1-31" value="Прямые оплаты по договорам, заключенным Агентом" style="html=1;verticalAlign=bottom;endArrow=open;endSize=8;curved=0;rounded=0;strokeWidth=2;fontSize=12;fontFamily=Times New Roman;horizontal=1;fontStyle=1;entryX=1;entryY=0.5;entryDx=0;entryDy=0;exitX=1;exitY=0.5;exitDx=0;exitDy=0;" parent="1" edge="1">
          <mxGeometry x="-0.6859" y="10" relative="1" as="geometry">
            <mxPoint x="540" y="60" as="sourcePoint" />
            <mxPoint x="840" y="615" as="targetPoint" />
            <Array as="points">
              <mxPoint x="920" y="60" />
              <mxPoint x="920" y="615" />
            </Array>
            <mxPoint as="offset" />
          </mxGeometry>
        </mxCell>
        <mxCell id="j4LA7XrgFb8-6QXly_M1-34" value="" style="endArrow=classic;html=1;rounded=0;entryX=0;entryY=0.5;entryDx=0;entryDy=0;strokeWidth=2;strokeColor=#FF0000;" parent="1" edge="1">
          <mxGeometry width="50" height="50" relative="1" as="geometry">
            <mxPoint x="560" y="140" as="sourcePoint" />
            <mxPoint x="650" y="114.5" as="targetPoint" />
            <Array as="points">
              <mxPoint x="560" y="115" />
            </Array>
          </mxGeometry>
        </mxCell>
        <mxCell id="j4LA7XrgFb8-6QXly_M1-36" value="" style="endArrow=classic;html=1;rounded=0;entryX=0;entryY=0.5;entryDx=0;entryDy=0;strokeWidth=2;strokeColor=#FF0000;" parent="1" edge="1">
          <mxGeometry width="50" height="50" relative="1" as="geometry">
            <mxPoint x="560" y="310.5" as="sourcePoint" />
            <mxPoint x="650" y="310.5" as="targetPoint" />
          </mxGeometry>
        </mxCell>
        <mxCell id="j4LA7XrgFb8-6QXly_M1-64" value="&lt;div style=&quot;&quot;&gt;&lt;span style=&quot;font-size: 11px; color: light-dark(rgb(255, 0, 0), rgb(255, 144, 144));&quot;&gt;Договора&lt;/span&gt;&lt;/div&gt;&lt;div style=&quot;&quot;&gt;&lt;font style=&quot;font-size: 11px;&quot;&gt;в рамках Агенского договора&lt;/font&gt;&lt;/div&gt;" style="html=1;verticalAlign=bottom;endArrow=open;endSize=9;curved=0;rounded=0;fontFamily=Times New Roman;fontSize=12;strokeWidth=2;strokeColor=#FF0000;fontColor=#FF0000;fontStyle=1;exitX=1;exitY=0.5;exitDx=0;exitDy=0;entryX=0;entryY=0.5;entryDx=0;entryDy=0;align=center;labelBackgroundColor=none;" parent="1" target="j4LA7XrgFb8-6QXly_M1-12" edge="1">
          <mxGeometry x="-0.5897" y="10" relative="1" as="geometry">
            <mxPoint x="160" y="140" as="sourcePoint" />
            <mxPoint x="590" y="140" as="targetPoint" />
            <mxPoint as="offset" />
            <Array as="points">
              <mxPoint x="560" y="140" />
              <mxPoint x="560" y="625" />
            </Array>
          </mxGeometry>
        </mxCell>
        <mxCell id="j4LA7XrgFb8-6QXly_M1-37" value="" style="endArrow=classic;html=1;rounded=0;entryX=0;entryY=0.5;entryDx=0;entryDy=0;strokeWidth=2;strokeColor=#FF0000;" parent="1" edge="1">
          <mxGeometry width="50" height="50" relative="1" as="geometry">
            <mxPoint x="560" y="212.5" as="sourcePoint" />
            <mxPoint x="650" y="212.5" as="targetPoint" />
          </mxGeometry>
        </mxCell>
        <mxCell id="j4LA7XrgFb8-6QXly_M1-38" value="" style="endArrow=classic;html=1;rounded=0;entryX=0;entryY=0.5;entryDx=0;entryDy=0;strokeWidth=2;strokeColor=#FF0000;" parent="1" edge="1">
          <mxGeometry width="50" height="50" relative="1" as="geometry">
            <mxPoint x="560" y="410" as="sourcePoint" />
            <mxPoint x="650" y="410" as="targetPoint" />
          </mxGeometry>
        </mxCell>
        <mxCell id="-N5stzB7ljpaPrFJ2B97-2" value="" style="endArrow=classic;html=1;rounded=0;entryX=0;entryY=0.5;entryDx=0;entryDy=0;strokeWidth=2;strokeColor=#FF0000;" parent="1" edge="1">
          <mxGeometry width="50" height="50" relative="1" as="geometry">
            <mxPoint x="560" y="506.5" as="sourcePoint" />
            <mxPoint x="650" y="506.5" as="targetPoint" />
          </mxGeometry>
        </mxCell>
        <mxCell id="-N5stzB7ljpaPrFJ2B97-3" value="" style="endArrow=classic;html=1;rounded=0;fontSize=12;strokeWidth=2;" parent="1" edge="1">
          <mxGeometry width="50" height="50" relative="1" as="geometry">
            <mxPoint x="920" y="115" as="sourcePoint" />
            <mxPoint x="840" y="114.5" as="targetPoint" />
          </mxGeometry>
        </mxCell>
        <mxCell id="-N5stzB7ljpaPrFJ2B97-4" value="" style="endArrow=classic;html=1;rounded=0;fontSize=12;strokeWidth=2;" parent="1" edge="1">
          <mxGeometry width="50" height="50" relative="1" as="geometry">
            <mxPoint x="920" y="510.5" as="sourcePoint" />
            <mxPoint x="840" y="510" as="targetPoint" />
          </mxGeometry>
        </mxCell>
        <mxCell id="-N5stzB7ljpaPrFJ2B97-5" value="" style="endArrow=classic;html=1;rounded=0;fontSize=12;strokeWidth=2;" parent="1" edge="1">
          <mxGeometry width="50" height="50" relative="1" as="geometry">
            <mxPoint x="920" y="213" as="sourcePoint" />
            <mxPoint x="840" y="212.5" as="targetPoint" />
          </mxGeometry>
        </mxCell>
        <mxCell id="-N5stzB7ljpaPrFJ2B97-8" value="" style="endArrow=classic;html=1;rounded=0;fontSize=12;strokeWidth=2;" parent="1" edge="1">
          <mxGeometry width="50" height="50" relative="1" as="geometry">
            <mxPoint x="920" y="405" as="sourcePoint" />
            <mxPoint x="840" y="404.5" as="targetPoint" />
          </mxGeometry>
        </mxCell>
        <mxCell id="-N5stzB7ljpaPrFJ2B97-9" value="" style="endArrow=classic;html=1;rounded=0;fontSize=12;strokeWidth=2;" parent="1" edge="1">
          <mxGeometry width="50" height="50" relative="1" as="geometry">
            <mxPoint x="920" y="311" as="sourcePoint" />
            <mxPoint x="840" y="310.5" as="targetPoint" />
          </mxGeometry>
        </mxCell>
        <mxCell id="Wp9_VDhf542CK1KfMWfJ-6" value="&lt;b&gt;В рамках Агенского договора&lt;/b&gt;" style="swimlane;fontStyle=0;childLayout=stackLayout;horizontal=1;startSize=26;fillColor=none;horizontalStack=0;resizeParent=1;resizeParentMax=0;resizeLast=0;collapsible=1;marginBottom=0;whiteSpace=wrap;html=1;fontFamily=Times New Roman;fontSize=14;fontColor=#FF0000;strokeColor=#FF0000;" vertex="1" parent="1">
          <mxGeometry x="40" y="532" width="440" height="104" as="geometry" />
        </mxCell>
        <mxCell id="Wp9_VDhf542CK1KfMWfJ-7" value="Заключение договоров с Подрядчиками и Поставщиками" style="text;strokeColor=none;fillColor=none;align=left;verticalAlign=top;spacingLeft=4;spacingRight=4;overflow=hidden;rotatable=0;points=[[0,0.5],[1,0.5]];portConstraint=eastwest;whiteSpace=wrap;html=1;fontFamily=Times New Roman;fontColor=#FF0000;" vertex="1" parent="Wp9_VDhf542CK1KfMWfJ-6">
          <mxGeometry y="26" width="440" height="26" as="geometry" />
        </mxCell>
        <mxCell id="Wp9_VDhf542CK1KfMWfJ-8" value="Контроль и координация выполняемых работ и поставок." style="text;strokeColor=none;fillColor=none;align=left;verticalAlign=top;spacingLeft=4;spacingRight=4;overflow=hidden;rotatable=0;points=[[0,0.5],[1,0.5]];portConstraint=eastwest;whiteSpace=wrap;html=1;fontFamily=Times New Roman;fontColor=#FF0000;" vertex="1" parent="Wp9_VDhf542CK1KfMWfJ-6">
          <mxGeometry y="52" width="440" height="26" as="geometry" />
        </mxCell>
        <mxCell id="Wp9_VDhf542CK1KfMWfJ-9" value="Организация установки и настройки необходимых ИТ решений и продуктов." style="text;strokeColor=none;fillColor=none;align=left;verticalAlign=top;spacingLeft=4;spacingRight=4;overflow=hidden;rotatable=0;points=[[0,0.5],[1,0.5]];portConstraint=eastwest;whiteSpace=wrap;html=1;fontFamily=Times New Roman;fontColor=#FF0000;" vertex="1" parent="Wp9_VDhf542CK1KfMWfJ-6">
          <mxGeometry y="78" width="440" height="26" as="geometry" />
        </mxCell>
        <mxCell id="Wp9_VDhf542CK1KfMWfJ-25" value="" style="endArrow=none;html=1;rounded=0;entryX=0;entryY=0.5;entryDx=0;entryDy=0;exitX=0;exitY=0;exitDx=0;exitDy=0;dashed=1;dashPattern=8 8;strokeWidth=2;" edge="1" parent="1" source="Wp9_VDhf542CK1KfMWfJ-22" target="j4LA7XrgFb8-6QXly_M1-3">
          <mxGeometry width="50" height="50" relative="1" as="geometry">
            <mxPoint x="430" y="370" as="sourcePoint" />
            <mxPoint x="480" y="320" as="targetPoint" />
            <Array as="points">
              <mxPoint x="20" y="120" />
            </Array>
          </mxGeometry>
        </mxCell>
        <mxCell id="Wp9_VDhf542CK1KfMWfJ-26" value="ОТКРЫТИЕ КЛУБА" style="rounded=0;whiteSpace=wrap;html=1;fontStyle=1;fontSize=14;strokeWidth=2;" vertex="1" parent="1">
          <mxGeometry x="20" y="690" width="900" height="80" as="geometry" />
        </mxCell>
        <mxCell id="Wp9_VDhf542CK1KfMWfJ-29" value="" style="endArrow=classic;html=1;rounded=0;entryX=0.5;entryY=0;entryDx=0;entryDy=0;strokeWidth=2;dashed=1;dashPattern=8 8;exitX=0.936;exitY=1.007;exitDx=0;exitDy=0;exitPerimeter=0;" edge="1" parent="1" source="Wp9_VDhf542CK1KfMWfJ-22" target="Wp9_VDhf542CK1KfMWfJ-26">
          <mxGeometry width="50" height="50" relative="1" as="geometry">
            <mxPoint x="470" y="680" as="sourcePoint" />
            <mxPoint x="480" y="420" as="targetPoint" />
          </mxGeometry>
        </mxCell>
      </root>
    </mxGraphModel>
  </diagram>
</mxfile>
